<svg width="1739" height="616" viewBox="0 0 1739 616" fill="none" xmlns="http://www.w3.org/2000/svg">
<rect width="1739" height="616" fill="white"/>
<g clip-path="url(#clip0_19_15)">
<path d="M162.938 394.188H551.063C565.876 394.188 577.891 382.172 577.891 367.36V138.969C577.891 124.172 565.875 112.156 551.063 112.156H162.938C148.125 112.156 136.125 124.172 136.125 138.969V367.36C136.125 382.172 148.125 394.188 162.938 394.188ZM177.125 148.188H536.875V351.844H177.125V148.188Z" fill="#5AB7F9"/>
<path d="M609.031 468.609L561.187 426.14C558.109 423.421 553.687 421.874 549.015 421.874H164.984C160.312 421.874 155.89 423.421 152.812 426.14L104.969 468.609C102.406 470.875 101 473.797 101 476.813V491.61C101 495.063 104.609 497.844 109.063 497.844H604.938C609.407 497.844 613.001 495.063 613.001 491.61V476.813C613 473.797 611.594 470.875 609.031 468.609ZM302.141 473.625L315.985 454.906H403.719L417.547 473.625H302.141Z" fill="#5AB7F9"/>
<path d="M372.647 212.309C372.029 209.198 370.65 206.351 368.723 204C368.317 203.487 367.893 203.028 367.433 202.569C364.02 199.14 359.23 197 353.997 197H255.004C249.771 197 244.998 199.14 241.569 202.569C241.11 203.028 240.685 203.487 240.278 204C238.351 206.351 236.971 209.198 236.371 212.309C236.124 213.51 236 214.75 236 216.005V285.531C236 288.198 236.566 290.762 237.574 293.077C238.51 295.287 239.89 297.287 241.568 298.964C241.994 299.388 242.416 299.779 242.877 300.167C246.165 302.889 250.408 304.533 255.004 304.533H353.997C358.594 304.533 362.856 302.889 366.124 300.149C366.584 299.779 367.008 299.388 367.433 298.964C369.11 297.287 370.49 295.287 371.445 293.077V293.06C372.453 290.745 373 288.198 373 285.531V216.005C373 214.75 372.878 213.51 372.647 212.309ZM248.445 209.445C250.143 207.749 252.423 206.722 255.004 206.722H353.997C356.578 206.722 358.878 207.749 360.555 209.445C360.856 209.747 361.139 210.084 361.388 210.418L309.503 255.637C308.072 256.892 306.304 257.511 304.5 257.511C302.714 257.511 300.948 256.892 299.498 255.637L247.632 210.399C247.862 210.064 248.145 209.747 248.445 209.445ZM245.722 285.531V220.459L283.27 253.215L245.741 285.936C245.722 285.812 245.722 285.672 245.722 285.531ZM353.997 294.809H255.004C253.323 294.809 251.75 294.368 250.408 293.591L290.004 259.085L293.701 262.3C296.794 264.989 300.665 266.35 304.5 266.35C308.355 266.35 312.226 264.989 315.319 262.3L319.014 259.085L358.594 293.591C357.25 294.368 355.677 294.809 353.997 294.809ZM363.278 285.531C363.278 285.672 363.278 285.812 363.26 285.936L325.731 253.234L363.278 220.477V285.531Z" fill="#5AB7F9"/>
<path d="M491.123 265.145C493.8 261.188 495.37 256.382 495.367 251.256C495.367 247.841 494.672 244.561 493.414 241.586C491.525 237.122 488.382 233.339 484.42 230.663C480.463 227.986 475.657 226.416 470.529 226.418C467.114 226.417 463.835 227.113 460.862 228.371C456.396 230.261 452.615 233.403 449.937 237.365C447.952 240.3 446.58 243.7 446.003 247.352L426.886 247.353L426.886 238.482L420.5 238.482L420.501 247.352L413.404 247.353L413.404 234.223L404.178 234.223L404.178 256.579L446.271 256.578C446.601 258.081 447.06 259.537 447.648 260.924C449.536 265.389 452.677 269.171 456.639 271.848C460.598 274.525 465.404 276.095 470.529 276.093C473.946 276.093 477.225 275.397 480.2 274.139C484.664 272.25 488.446 269.109 491.123 265.145ZM478.859 263.616C476.474 265.223 473.632 266.157 470.529 266.158C468.459 266.159 466.511 265.741 464.732 264.99C462.063 263.862 459.777 261.964 458.17 259.584C456.562 257.2 455.629 254.359 455.627 251.256C455.627 249.184 456.044 247.237 456.796 245.457C457.923 242.787 459.819 240.503 462.2 238.895C464.586 237.287 467.426 236.355 470.529 236.354C472.601 236.353 474.548 236.771 476.328 237.523C478.998 238.65 481.282 240.546 482.891 242.927C484.498 245.312 485.43 248.153 485.431 251.256C485.433 253.326 485.016 255.275 484.263 257.054C483.135 259.722 481.24 262.007 478.859 263.616Z" fill="#5AB7F9"/>
</g>
<path d="M671.918 381L696.065 235.545H731.222L721.562 293.926H778.878L788.537 235.545H823.622L799.474 381H764.389L774.048 322.548H716.733L707.074 381H671.918ZM851.996 382.847C845.083 382.847 839.117 381.687 834.098 379.366C829.126 376.999 825.481 373.424 823.161 368.642C820.888 363.86 820.343 357.894 821.527 350.744C822.569 344.684 824.486 339.594 827.28 335.474C830.121 331.308 833.601 327.922 837.72 325.318C841.887 322.714 846.527 320.725 851.641 319.352C856.754 317.979 862.105 317.056 867.692 316.582C873.942 316.014 879.008 315.399 882.891 314.736C886.821 314.073 889.756 313.15 891.697 311.966C893.639 310.735 894.822 309.03 895.249 306.852V306.497C895.817 302.851 895.036 300.034 892.905 298.045C890.774 296.057 887.578 295.062 883.317 295.062C878.771 295.062 874.889 296.057 871.669 298.045C868.449 300.034 866.2 302.78 864.922 306.284L833.104 305.148C835.092 298.519 838.501 292.6 843.331 287.392C848.161 282.136 854.292 278.017 861.726 275.034C869.207 272.004 877.848 270.489 887.649 270.489C894.562 270.489 900.812 271.317 906.399 272.974C911.986 274.584 916.697 276.952 920.533 280.077C924.415 283.154 927.185 286.942 928.842 291.44C930.5 295.938 930.855 301.076 929.908 306.852L917.479 381H884.808L887.365 365.801H886.513C883.956 369.494 880.949 372.619 877.493 375.176C874.084 377.733 870.249 379.651 865.987 380.929C861.726 382.207 857.062 382.847 851.996 382.847ZM866.626 360.119C870.272 360.119 873.729 359.362 876.996 357.847C880.263 356.331 883.009 354.248 885.234 351.597C887.507 348.898 888.951 345.773 889.567 342.222L891.2 331.852C890.206 332.373 888.951 332.847 887.436 333.273C885.921 333.699 884.311 334.101 882.607 334.48C880.902 334.812 879.15 335.143 877.351 335.474C875.599 335.759 873.918 336.019 872.308 336.256C868.899 336.777 865.94 337.581 863.43 338.67C860.921 339.759 858.909 341.18 857.393 342.932C855.926 344.636 855.026 346.672 854.695 349.04C854.126 352.591 854.955 355.337 857.18 357.278C859.406 359.172 862.554 360.119 866.626 360.119ZM1046.31 305.219L1014.99 306.071C1015.04 303.751 1014.52 301.715 1013.43 299.963C1012.34 298.164 1010.8 296.767 1008.81 295.773C1006.83 294.778 1004.46 294.281 1001.71 294.281C997.261 294.281 993.26 295.276 989.709 297.264C986.205 299.253 984.24 301.833 983.814 305.006C983.482 306.71 983.956 308.202 985.234 309.48C986.513 310.711 989.354 311.8 993.757 312.747L1014.21 316.724C1024.72 318.808 1032.35 322.43 1037.08 327.591C1041.86 332.705 1043.57 339.475 1042.19 347.903C1040.96 355.1 1037.79 361.327 1032.68 366.582C1027.61 371.838 1021.15 375.91 1013.29 378.798C1005.48 381.639 996.835 383.06 987.365 383.06C971.361 383.06 959.287 379.84 951.143 373.401C943.047 366.914 939.259 358.32 939.78 347.619L973.587 346.767C973.729 350.792 975.078 353.822 977.635 355.858C980.239 357.847 983.767 358.888 988.217 358.983C993.094 359.078 997.308 358.06 1000.86 355.929C1004.41 353.798 1006.4 351.17 1006.83 348.045C1007.11 346.009 1006.42 344.423 1004.77 343.287C1003.16 342.151 1000.15 341.133 995.746 340.233L977.28 336.611C966.674 334.575 959.003 330.74 954.268 325.105C949.581 319.423 947.971 312.179 949.439 303.372C950.67 296.365 953.558 290.422 958.104 285.545C962.696 280.621 968.686 276.881 976.072 274.324C983.506 271.767 991.982 270.489 1001.5 270.489C1016.74 270.489 1028.25 273.59 1036.02 279.793C1043.83 285.948 1047.26 294.423 1046.31 305.219ZM1099.07 318.784L1088.7 381H1053.97L1078.11 235.545H1111.71L1102.48 291.938H1103.68C1107.19 285.214 1112.06 279.958 1118.31 276.17C1124.56 272.383 1131.81 270.489 1140.05 270.489C1147.62 270.489 1153.97 272.193 1159.08 275.602C1164.19 278.964 1167.82 283.723 1169.95 289.878C1172.08 296.033 1172.46 303.23 1171.08 311.469L1159.44 381H1124.71L1135.22 318.287C1136.16 312.226 1135.38 307.491 1132.87 304.082C1130.36 300.673 1126.34 298.969 1120.8 298.969C1117.15 298.969 1113.79 299.774 1110.71 301.384C1107.68 302.946 1105.15 305.195 1103.11 308.131C1101.08 311.066 1099.73 314.617 1099.07 318.784ZM1238.43 264.097L1243.26 235.545H1366.2L1361.37 264.097H1317.27L1297.95 381H1263.29L1282.61 264.097H1238.43ZM1374.85 382.847C1367.93 382.847 1361.97 381.687 1356.95 379.366C1351.98 376.999 1348.33 373.424 1346.01 368.642C1343.74 363.86 1343.19 357.894 1344.38 350.744C1345.42 344.684 1347.34 339.594 1350.13 335.474C1352.97 331.308 1356.45 327.922 1360.57 325.318C1364.74 322.714 1369.38 320.725 1374.49 319.352C1379.61 317.979 1384.96 317.056 1390.54 316.582C1396.79 316.014 1401.86 315.399 1405.74 314.736C1409.67 314.073 1412.61 313.15 1414.55 311.966C1416.49 310.735 1417.67 309.03 1418.1 306.852V306.497C1418.67 302.851 1417.89 300.034 1415.76 298.045C1413.63 296.057 1410.43 295.062 1406.17 295.062C1401.62 295.062 1397.74 296.057 1394.52 298.045C1391.3 300.034 1389.05 302.78 1387.77 306.284L1355.96 305.148C1357.94 298.519 1361.35 292.6 1366.18 287.392C1371.01 282.136 1377.14 278.017 1384.58 275.034C1392.06 272.004 1400.7 270.489 1410.5 270.489C1417.41 270.489 1423.66 271.317 1429.25 272.974C1434.84 274.584 1439.55 276.952 1443.38 280.077C1447.27 283.154 1450.04 286.942 1451.69 291.44C1453.35 295.938 1453.71 301.076 1452.76 306.852L1440.33 381H1407.66L1410.22 365.801H1409.36C1406.81 369.494 1403.8 372.619 1400.34 375.176C1396.94 377.733 1393.1 379.651 1388.84 380.929C1384.58 382.207 1379.91 382.847 1374.85 382.847ZM1389.48 360.119C1393.12 360.119 1396.58 359.362 1399.85 357.847C1403.11 356.331 1405.86 354.248 1408.09 351.597C1410.36 348.898 1411.8 345.773 1412.42 342.222L1414.05 331.852C1413.06 332.373 1411.8 332.847 1410.29 333.273C1408.77 333.699 1407.16 334.101 1405.46 334.48C1403.75 334.812 1402 335.143 1400.2 335.474C1398.45 335.759 1396.77 336.019 1395.16 336.256C1391.75 336.777 1388.79 337.581 1386.28 338.67C1383.77 339.759 1381.76 341.18 1380.25 342.932C1378.78 344.636 1377.88 346.672 1377.55 349.04C1376.98 352.591 1377.81 355.337 1380.03 357.278C1382.26 359.172 1385.41 360.119 1389.48 360.119ZM1520.44 235.545L1496.3 381H1461.57L1485.71 235.545H1520.44ZM1554.41 352.378L1561.44 310.972H1566.2L1603.56 271.909H1642.9L1588.08 327.875H1578.91L1554.41 352.378ZM1518.4 381L1542.55 235.545H1577.28L1553.13 381H1518.4ZM1586.16 381L1565.13 335.688L1592.19 311.043L1626.29 381H1586.16Z" fill="#5AB7F9"/>
<defs>
<clipPath id="clip0_19_15">
<rect width="512" height="512" fill="white" transform="translate(101 49)"/>
</clipPath>
</defs>
</svg>
